# xmcd
#
# Track frame offsets:
#	150
#	5997
#	23925
#	51514
#	66650
#	85372
#	135675
#	153775
#
# Disc length: 2593 seconds
#
# Revision: 1
# Processed by: cddbd v1.5PL3 Copyright (c) Steve Scherf et al.
# Submitted via: EasyCDDAExtractor 6.2.0.3
#
DISCID=710a1f08
DTITLE=Chit Sann Maung - Chout Kyoe Ka Wai
DYEAR=1997
DGENRE=Instrumental
TTITLE0=Payy
TTITLE1=Pa Hta Ma Ye. A Sa
TTITLE2=A Chain Myarr Ko Sant Kyin Chinn and Chout Kyoe Ka Wai
TTITLE3=Mar Yar
TTITLE4=Aye Set Chinn Ye. A Net A Date Pel
TTITLE5=Lwin Tee Khaung and A Chit Ei. Thay Minn Ta Man
TTITLE6=Pyayy Lann Paw Ka Let Chaung Myarr
TTITLE7=Sone Ma Tho. Sone Ma Chinn and Nga Ye Tho. Payy Sut Chinn and Thant Sin Th
TTITLE7=u Ei. A Pu Mee
EXTD=
EXTT0=
EXTT1=
EXTT2=
EXTT3=
EXTT4=
EXTT5=
EXTT6=
EXTT7=
PLAYORDER=
